# xmcd
#
# Track frame offsets: 
#        150
#        35385
#        59990
#        77158
#        101016
#        132504
#        149389
#        174257
#        192620
#        215650
#        238881
#
# Disc length: 3691 seconds
#
# Revision: 1
# Processed by: cddbd v1.5.2PL0 Copyright (c) Steve Scherf et al.
# Submitted via: ExactAudioCopyFreeDBPlugin 1.0
#
DISCID=ae0e690b
DTITLE=Melba Moore - Melba
DYEAR=1978
DGENRE=Soul
TTITLE0=You Stepped Into My Life
TTITLE1=There's No Other Like You
TTITLE2=It's Hard Not To Like You
TTITLE3=Together Forever
TTITLE4=Pick Me Up, I'll Dance
TTITLE5=Happy
TTITLE6=I Promise To Love You
TTITLE7=Where Did You Ever Go
TTITLE8=You Stepped Into My Life (Original Version)
TTITLE9=Pick Me Up, I'll Dance (Original Version)
TTITLE10=Pick Me Up, I'll Dance (Instrumental)
EXTD=
EXTT0=
EXTT1=
EXTT2=
EXTT3=
EXTT4=
EXTT5=
EXTT6=
EXTT7=
EXTT8=
EXTT9=
EXTT10=
PLAYORDER=
